<svg xmlns="http://www.w3.org/2000/svg" width="296.591" height="157.825" viewBox="0 0 296.591 157.825">
    <defs>
        <linearGradient id="linear-gradient" x1=".096" x2=".89" y1="-.068" y2="1.048" gradientUnits="objectBoundingBox">
            <stop offset="0" stop-color="#fff"/>
            <stop offset=".318" stop-color="#fcfcfb"/>
            <stop offset=".623" stop-color="#f5f2ef"/>
            <stop offset=".922" stop-color="#e9e3dc"/>
            <stop offset="1" stop-color="#e5dfd6"/>
        </linearGradient>
        <linearGradient id="linear-gradient-2" x1=".097" x2=".889" y1="-.074" y2="1.054" gradientUnits="objectBoundingBox">
            <stop offset="0" stop-color="#fff"/>
            <stop offset=".317" stop-color="#fcfbfb"/>
            <stop offset=".623" stop-color="#f5f2ef"/>
            <stop offset=".924" stop-color="#e8e3dc"/>
            <stop offset="1" stop-color="#e5dfd6"/>
        </linearGradient>
        <linearGradient id="linear-gradient-3" x1=".098" x2=".889" y1="-.08" y2="1.061" gradientUnits="objectBoundingBox">
            <stop offset="0" stop-color="#fff"/>
            <stop offset=".316" stop-color="#fcfbfb"/>
            <stop offset=".623" stop-color="#f5f2ef"/>
            <stop offset=".926" stop-color="#e8e3db"/>
            <stop offset="1" stop-color="#e5dfd6"/>
        </linearGradient>
        <linearGradient id="linear-gradient-4" x1=".099" x2=".889" y1="-.086" y2="1.068" gradientUnits="objectBoundingBox">
            <stop offset="0" stop-color="#fff"/>
            <stop offset=".316" stop-color="#fcfbfb"/>
            <stop offset=".624" stop-color="#f5f2ef"/>
            <stop offset=".928" stop-color="#e8e3db"/>
            <stop offset="1" stop-color="#e5dfd6"/>
        </linearGradient>
        <linearGradient id="linear-gradient-5" x1=".1" x2=".889" y1="-.092" y2="1.075" gradientUnits="objectBoundingBox">
            <stop offset="0" stop-color="#fff"/>
            <stop offset=".315" stop-color="#fcfbfb"/>
            <stop offset=".624" stop-color="#f5f2ef"/>
            <stop offset=".93" stop-color="#e8e3db"/>
            <stop offset="1" stop-color="#e5dfd6"/>
        </linearGradient>
        <linearGradient id="linear-gradient-6" x1=".101" x2=".889" y1="-.099" y2="1.083" gradientUnits="objectBoundingBox">
            <stop offset="0" stop-color="#fff"/>
            <stop offset=".314" stop-color="#fcfbfb"/>
            <stop offset=".624" stop-color="#f4f2ef"/>
            <stop offset=".932" stop-color="#e8e3db"/>
            <stop offset="1" stop-color="#e5dfd6"/>
        </linearGradient>
        <linearGradient id="linear-gradient-7" x1=".102" x2=".888" y1="-.106" y2="1.091" gradientUnits="objectBoundingBox">
            <stop offset="0" stop-color="#fff"/>
            <stop offset=".314" stop-color="#fcfbfb"/>
            <stop offset=".624" stop-color="#f4f2ef"/>
            <stop offset=".933" stop-color="#e8e3db"/>
            <stop offset="1" stop-color="#e5dfd6"/>
        </linearGradient>
        <linearGradient id="linear-gradient-8" x1=".103" x2=".888" y1="-.113" y2="1.099" gradientUnits="objectBoundingBox">
            <stop offset="0" stop-color="#fff"/>
            <stop offset=".313" stop-color="#fcfbfb"/>
            <stop offset=".625" stop-color="#f4f2ef"/>
            <stop offset=".935" stop-color="#e8e3db"/>
            <stop offset="1" stop-color="#e5dfd6"/>
        </linearGradient>
        <linearGradient id="linear-gradient-9" x1=".104" x2=".888" y1="-.12" y2="1.107" gradientUnits="objectBoundingBox">
            <stop offset="0" stop-color="#fff"/>
            <stop offset=".312" stop-color="#fcfbfa"/>
            <stop offset=".625" stop-color="#f4f2ee"/>
            <stop offset=".937" stop-color="#e8e2da"/>
            <stop offset="1" stop-color="#e5dfd6"/>
        </linearGradient>
        <linearGradient id="linear-gradient-10" x1=".105" x2=".888" y1="-.127" y2="1.115" gradientUnits="objectBoundingBox">
            <stop offset="0" stop-color="#fff"/>
            <stop offset=".312" stop-color="#fcfbfa"/>
            <stop offset=".625" stop-color="#f4f2ee"/>
            <stop offset=".94" stop-color="#e8e2da"/>
            <stop offset="1" stop-color="#e5dfd6"/>
        </linearGradient>
        <linearGradient id="linear-gradient-11" x1=".106" x2=".887" y1="-.135" y2="1.124" gradientUnits="objectBoundingBox">
            <stop offset="0" stop-color="#fff"/>
            <stop offset=".311" stop-color="#fcfbfa"/>
            <stop offset=".626" stop-color="#f4f2ee"/>
            <stop offset=".942" stop-color="#e7e2da"/>
            <stop offset="1" stop-color="#e5dfd6"/>
        </linearGradient>
        <linearGradient id="linear-gradient-12" x1=".107" x2=".887" y1="-.143" y2="1.133" gradientUnits="objectBoundingBox">
            <stop offset="0" stop-color="#fff"/>
            <stop offset=".31" stop-color="#fcfbfa"/>
            <stop offset=".626" stop-color="#f4f2ee"/>
            <stop offset=".944" stop-color="#e7e2da"/>
            <stop offset="1" stop-color="#e5dfd6"/>
        </linearGradient>
        <linearGradient id="linear-gradient-13" x1=".108" x2=".887" y1="-.151" y2="1.142" gradientUnits="objectBoundingBox">
            <stop offset="0" stop-color="#fff"/>
            <stop offset=".31" stop-color="#fcfbfa"/>
            <stop offset=".627" stop-color="#f4f2ee"/>
            <stop offset=".946" stop-color="#e7e2da"/>
            <stop offset="1" stop-color="#e5dfd6"/>
        </linearGradient>
        <linearGradient id="linear-gradient-14" x1=".109" x2=".887" y1="-.16" y2="1.152" gradientUnits="objectBoundingBox">
            <stop offset="0" stop-color="#fff"/>
            <stop offset=".309" stop-color="#fcfbfa"/>
            <stop offset=".627" stop-color="#f4f2ee"/>
            <stop offset=".948" stop-color="#e7e2da"/>
            <stop offset="1" stop-color="#e5dfd6"/>
        </linearGradient>
        <linearGradient id="linear-gradient-15" x1=".11" x2=".886" y1="-.169" y2="1.162" gradientUnits="objectBoundingBox">
            <stop offset="0" stop-color="#fff"/>
            <stop offset=".309" stop-color="#fcfbfa"/>
            <stop offset=".628" stop-color="#f4f2ee"/>
            <stop offset=".95" stop-color="#e7e2d9"/>
            <stop offset="1" stop-color="#e5dfd6"/>
        </linearGradient>
        <linearGradient id="linear-gradient-16" x1=".111" x2=".886" y1="-.178" y2="1.173" gradientUnits="objectBoundingBox">
            <stop offset="0" stop-color="#fff"/>
            <stop offset=".308" stop-color="#fcfbfa"/>
            <stop offset=".628" stop-color="#f4f2ee"/>
            <stop offset=".953" stop-color="#e7e1d9"/>
            <stop offset="1" stop-color="#e5dfd6"/>
        </linearGradient>
        <linearGradient id="linear-gradient-17" x1=".112" x2=".886" y1="-.188" y2="1.184" gradientUnits="objectBoundingBox">
            <stop offset="0" stop-color="#fff"/>
            <stop offset=".308" stop-color="#fcfbfa"/>
            <stop offset=".629" stop-color="#f4f1ee"/>
            <stop offset=".955" stop-color="#e7e1d9"/>
            <stop offset="1" stop-color="#e5dfd6"/>
        </linearGradient>
        <linearGradient id="linear-gradient-18" x1="-.018" x2=".935" y1="-.807" y2="1.597" gradientUnits="objectBoundingBox">
            <stop offset="0" stop-color="#e5dfd6"/>
            <stop offset=".045" stop-color="#e7e1d9"/>
            <stop offset=".371" stop-color="#f4f1ee"/>
            <stop offset=".692" stop-color="#fcfbfa"/>
            <stop offset="1" stop-color="#fff"/>
        </linearGradient>
        <style>
            .cls-19{fill:#6b1889}
        </style>
    </defs>
    <g id="Group_732" transform="translate(-1345.409 -1273.83)">
        <g id="Group_13" transform="translate(1345.409 1273.83)">
            <g id="Group_12">
                <g id="Group_11">
                    <path id="Rectangle_77" fill="url(#linear-gradient-2)" d="M14.223 0h265.605a14.222 14.222 0 0 1 14.222 14.222V141a14.222 14.222 0 0 1-14.222 14.222H14.222A14.222 14.222 0 0 1 0 141V14.223A14.223 14.223 0 0 1 14.223 0z" opacity="0.063" transform="translate(1.269 1.301)"/>
                    <path id="Rectangle_78" fill="url(#linear-gradient-3)" d="M13.677 0h264.157a13.676 13.676 0 0 1 13.676 13.676v125.269a13.677 13.677 0 0 1-13.677 13.677H13.677A13.677 13.677 0 0 1 0 138.945V13.677A13.677 13.677 0 0 1 13.677 0z" opacity="0.125" transform="translate(2.541 2.602)"/>
                    <path id="Rectangle_79" fill="url(#linear-gradient-4)" d="M13.13 0h262.71a13.129 13.129 0 0 1 13.129 13.129v123.755a13.131 13.131 0 0 1-13.131 13.131H13.131A13.131 13.131 0 0 1 0 136.884V13.13A13.13 13.13 0 0 1 13.13 0z" opacity="0.188" transform="translate(3.812 3.905)"/>
                    <path id="Rectangle_80" fill="url(#linear-gradient-5)" d="M12.585 0h261.259a12.584 12.584 0 0 1 12.584 12.584v122.244a12.585 12.585 0 0 1-12.585 12.585H12.585A12.585 12.585 0 0 1 0 134.828V12.585A12.585 12.585 0 0 1 12.585 0z" opacity="0.25" transform="translate(5.081 5.206)"/>
                    <path id="Rectangle_81" fill="url(#linear-gradient-6)" d="M12.04 0h259.808a12.039 12.039 0 0 1 12.039 12.039v120.733a12.039 12.039 0 0 1-12.039 12.039H12.039A12.039 12.039 0 0 1 0 132.772V12.04A12.04 12.04 0 0 1 12.04 0z" opacity="0.313" transform="translate(6.351 6.507)"/>
                    <path id="Rectangle_82" fill="url(#linear-gradient-7)" d="M11.494 0h258.359a11.493 11.493 0 0 1 11.493 11.493v119.223a11.494 11.494 0 0 1-11.494 11.494H11.494A11.494 11.494 0 0 1 0 130.715V11.494A11.494 11.494 0 0 1 11.494 0z" opacity="0.375" transform="translate(7.622 7.808)"/>
                    <path id="Rectangle_83" fill="url(#linear-gradient-8)" d="M10.948 0h256.91a10.947 10.947 0 0 1 10.947 10.947v117.712a10.949 10.949 0 0 1-10.949 10.949H10.949A10.949 10.949 0 0 1 0 128.658V10.948A10.948 10.948 0 0 1 10.948 0z" opacity="0.438" transform="translate(8.894 9.108)"/>
                    <path id="Rectangle_84" fill="url(#linear-gradient-9)" d="M10.4 0h255.463a10.4 10.4 0 0 1 10.4 10.4v116.2a10.4 10.4 0 0 1-10.4 10.4H10.4A10.4 10.4 0 0 1 0 126.6V10.4A10.4 10.4 0 0 1 10.4 0z" opacity="0.5" transform="translate(10.163 10.412)"/>
                    <path id="Rectangle_85" fill="url(#linear-gradient-10)" d="M9.858 0h254.01a9.856 9.856 0 0 1 9.856 9.856v114.687a9.856 9.856 0 0 1-9.856 9.856H9.856A9.856 9.856 0 0 1 0 124.543V9.858A9.858 9.858 0 0 1 9.858 0z" opacity="0.563" transform="translate(11.432 11.713)"/>
                    <path id="Rectangle_86" fill="url(#linear-gradient-11)" d="M9.312 0h252.561a9.311 9.311 0 0 1 9.311 9.311v113.175a9.311 9.311 0 0 1-9.311 9.311H9.312A9.312 9.312 0 0 1 0 122.486V9.312A9.312 9.312 0 0 1 9.312 0z" opacity="0.625" transform="translate(12.704 13.013)"/>
                    <path id="Rectangle_87" fill="url(#linear-gradient-12)" d="M8.766 0h251.112a8.765 8.765 0 0 1 8.765 8.765v111.664a8.767 8.767 0 0 1-8.767 8.767H8.767A8.767 8.767 0 0 1 0 120.429V8.766A8.766 8.766 0 0 1 8.766 0z" opacity="0.688" transform="translate(13.975 14.314)"/>
                    <path id="Rectangle_88" fill="url(#linear-gradient-13)" d="M8.221 0h249.661a8.22 8.22 0 0 1 8.22 8.22v110.154a8.221 8.221 0 0 1-8.221 8.221H8.221A8.221 8.221 0 0 1 0 118.374V8.221A8.221 8.221 0 0 1 8.221 0z" opacity="0.75" transform="translate(15.244 15.615)"/>
                    <path id="Rectangle_89" fill="url(#linear-gradient-14)" d="M7.676 0h248.211a7.675 7.675 0 0 1 7.675 7.675v108.643a7.675 7.675 0 0 1-7.675 7.675H7.675A7.675 7.675 0 0 1 0 116.318V7.676A7.676 7.676 0 0 1 7.676 0z" opacity="0.813" transform="translate(16.513 16.916)"/>
                    <path id="Rectangle_90" fill="url(#linear-gradient-15)" d="M7.129 0h246.764a7.128 7.128 0 0 1 7.128 7.128v107.129a7.129 7.129 0 0 1-7.129 7.129H7.129A7.129 7.129 0 0 1 0 114.257V7.129A7.129 7.129 0 0 1 7.129 0z" opacity="0.875" transform="translate(17.785 18.219)"/>
                    <path id="Rectangle_91" fill="url(#linear-gradient-16)" d="M6.584 0H251.9a6.582 6.582 0 0 1 6.582 6.582V112.2a6.584 6.584 0 0 1-6.584 6.584H6.584A6.584 6.584 0 0 1 0 112.2V6.584A6.584 6.584 0 0 1 6.584 0z" opacity="0.938" transform="translate(19.057 19.52)"/>
                    <path id="Rectangle_92" fill="url(#linear-gradient-17)" d="M6.038 0H249.9a6.037 6.037 0 0 1 6.037 6.037v104.107a6.038 6.038 0 0 1-6.038 6.038H6.038A6.038 6.038 0 0 1 0 110.144V6.038A6.038 6.038 0 0 1 6.038 0z" transform="translate(20.326 20.821)"/>
                </g>
            </g>
            <path id="Rectangle_93" fill="url(#linear-gradient-18)" d="M6.038 0H249.9a6.037 6.037 0 0 1 6.037 6.037v104.107a6.038 6.038 0 0 1-6.038 6.038H6.038A6.038 6.038 0 0 1 0 110.144V6.038A6.038 6.038 0 0 1 6.038 0z" transform="translate(20.326 20.821)"/>
        </g>
        <g id="Group_14" transform="translate(1385.448 1341.641)">
            <path id="Path_1" d="M280.622 217.93l3.1 6.287 6.939 1.008-5.02 4.893 1.186 6.912-6.209-3.263-6.207 3.263 1.186-6.912-5.021-4.893 6.939-1.008z" class="cls-19" transform="translate(-270.581 -217.93)"/>
            <path id="Path_2" d="M290.558 217.93l3.1 6.287 6.939 1.008-5.021 4.893 1.184 6.912-6.2-3.263-6.207 3.263 1.184-6.912-5.021-4.893 6.939-1.008z" class="cls-19" transform="translate(-255.688 -217.93)"/>
            <path id="Path_3" d="M300.492 217.93l3.1 6.287 6.939 1.008-5.021 4.893 1.184 6.912-6.2-3.263-6.209 3.263 1.186-6.912-5.02-4.893 6.939-1.008z" class="cls-19" transform="translate(-240.795 -217.93)"/>
            <path id="Path_4" d="M310.423 217.93l3.1 6.287 6.939 1.008-5.02 4.893 1.184 6.912-6.207-3.263-6.207 3.263 1.186-6.912-5.02-4.893 6.939-1.008z" class="cls-19" transform="translate(-225.903 -217.93)"/>
            <path id="Path_5" d="M320.356 217.93l3.1 6.287 6.939 1.008-5.023 4.893 1.186 6.912-6.207-3.263-6.207 3.263 1.186-6.912-5.02-4.893 6.939-1.008z" class="cls-19" transform="translate(-211.01 -217.93)"/>
        </g>
    </g>
</svg>
